<svg
   width="23.999981"
   height="19.001253"
   version="1"
   id="svg10"
   xmlns="http://www.w3.org/2000/svg"
   xmlns:svg="http://www.w3.org/2000/svg">
  <defs
     id="defs10" />
  <path
     d="M 2.5624444e-6,8.7564883 0.38363256,8.3700853 h 0.392874 L 1.1971126,7.9554873 h 0.359595 l 0.397034,-0.390101 h 0.797303 l 0.388252,0.390101 h 1.194799 l 0.42754,0.42569 v 0.807934 l 0.735829,0.765873 h 2.398843 l 0.387789,0.3901007 h 1.15921 v 0.780202 h -0.410438 l -0.369764,0.369763 v 0.434935 h -0.826422 l -0.764024,0.390101 h -1.796127 c 0,0 -0.136813,0.120173 -0.14467,0.449263 l -0.0083,0.330938 h 1.978698 v 5.900967 c 0,0 -6.32896904,-0.01202 -6.59242504,-0.01572 -0.259297,-0.0037 -0.512585,-0.366528 -0.509811997555,-0.586075 0.0022999976,-0.22001 0,-9.6429757 0,-9.6429757 z M 16.130946,17.169999 15.435328,17.830952 H 14.661135 V 17.02764 c 0,0 0.718266,-0.391487 0.850919,-0.391487 h 0.221858 V 15.720988 L 15.319315,15.308239 V 14.915827 L 14.940307,14.53913 h -0.401194 l -4.62e-4,-0.378083 -2.745034,-2.76722 h -0.388251 l -0.816254,-0.81764 V 9.8269543 l 0.408127,-0.408127 h 0.397496 l 0.783899,-0.787135 c 0,0 -0.733519,-1.085256 -1.11946,-1.449473 -0.14883,0.188579 -0.194588,0.284718 -0.459431,0.411824 -0.271314,0.130804 -0.242195,0.06055 -0.54078,0.245893 -0.1571494,0.09013 -0.4797684,-0.160847 -0.1368124,-0.328166 0.3984204,-0.193201 0.4256904,-0.259296 0.4464894,-0.32724 0.03328,-0.110467 -0.07072,-0.0587 -0.3706884,0.03282 -0.188579,0.05824 -0.103534,0.04761 -0.330938,0.0721 -0.05639,0.07858 -0.393336,0.384554 -0.543553,0.440943 -0.110929,0.140973 -0.11324,0.140048 -0.183495,0.20337 -0.271777,0.246818 -0.488088,-0.143745 -0.287954,-0.223707 0.1969,-0.07811 0.143284,-0.193201 0.28287,-0.31661 0.227404,-0.256986 0.455271,-0.507963 0.648011,-0.680827 0.277322,-0.162234 0.7039374,-0.338334 1.0769364,-0.454348 0.406278,-0.125719 0.702551,0.222321 0.702551,0.222321 l 1.237785,1.353335 h 1.147654 l 0.401193,-0.403505 v -0.397958 l 0.390101,-0.356822 v -0.39842 l -0.390101,-0.3522 v -1.605237 l -0.402118,-0.385479 -0.391487,-0.0018 -0.38779,-0.390101 h -0.396109 l -0.779739,0.780201 h -0.397496 v -0.40258 l -0.805161,-0.803774 v -1.172151 l -0.390101,-0.38779 v -0.396109 c 0,0 0.750621,-0.88697103 1.502166,-1.05752403 0.107231,-0.0245 0.479306,-0.09984 0.723812,-0.10168499282 0.43817,-0.003200007 0.446028,-0.002300007 0.553721,0.0605499928 0.06009,0.03513 0.424304,0.177948 0.451112,0.189503 0.206143,0.08874 0.364217,0.15715 0.392874,0.201059 0.02773,0.04345 0.09429,0.144671 0.147905,0.225556 0.05269,0.08042 0.122485,0.227867 0.153915,0.32724103 0.05362,0.167781 0.457582,0.982185 0.832892,1.358882 l 0.373924,0.374386 h 0.966008 c 0.703013,0 1.200807,0.05639 1.594606,0.212152 0.489937,0.193201 1.014077,0.557419 1.723099,1.277071 0,0 0.676667,0.709946 1.021472,1.185093 0.344343,0.474684 0.608261,1.371361 0.608261,1.853441 v 0.568049 h 0.371613 l 0.390101,-0.390101 h 1.200807 l 0.792681,0.825036 v 0.393798 c 0,0 -0.432623,0.0014 -0.517669,0.0832 l -0.262532,0.299971 V 10.247612 H 22.818123 L 22.418778,9.8501163 22.02498,10.242528 v 1.537292 l -0.808858,0.808859 h -0.394723 l -0.381319,0.381318 v 0.392874 l -0.390101,0.390101 v 2.750118 l 0.403043,0.401193 h 2.766757 v 0.780202 h -0.81348 l -0.390563,0.390101 h -2.351697 l -0.369764,0.366528 v 0.43817 H 18.46508 v -1.194799 h -0.789446 l -0.388252,0.388252 -0.395185,0.01387 -0.390101,0.79037 -0.378083,0.0023 0.0065,-1.709233 z m 2.650744,-1.506787 0.341569,-0.346654 v -2.045255 h -0.330014 l -0.68129,-0.682676 h -0.19921 l -0.869407,0.341107 h -0.661877 l -0.354973,-0.3522 v -0.696081 h -0.330477 l -0.338796,-0.341569 h -0.354511 v 0.672046 l 0.365142,0.363293 v 0.34388 l 0.342032,0.338796 v 0.698853 l 0.670196,0.653558 0.684063,0.0018 0.173789,0.177024 c 0.149755,0.151603 0.198748,0.225556 0.346654,0.523678 0.166393,0.334174 0.173326,0.354049 0.173326,0.523678 v 0.176562 l 0.328166,0.330476 H 18.78169 Z M 17.953419,7.0144383 17.61185,6.7084593 v -0.351276 l -0.341107,-0.339258 -0.209379,-0.69608 c -0.131266,0.01155 -0.209841,0.04992 -0.350351,0.197823 -0.14051,0.147906 -0.222783,0.52414 -0.222783,0.52414 l -0.415522,2.308251 1.880249,0.06748 v -1.405102 z m -13.8860154,0.455272 -1.586286,-0.0023 -0.38779,-0.390101 H 0.51905856 v -2.406237 l 0.408589,-0.01387 c 0.44833804,-0.01525 0.61658104,-0.04853 1.00298404,-0.197823 0.576831,-0.222783 1.250264,-0.643851 2.026305,-1.266441 l 0.110005,-0.08828 1.176773,-9.24e-4 c 0,0 0.02958,0.183495 0.02958,0.273163 9.25e-4,0.377159 0.103996,0.950292 0.374848,2.079921 0.250515,1.045506 0.334174,1.523888 0.369764,2.11551 l 0.01618,0.26207 -1.577042,-9.24e-4 -0.390101,-0.362831 z"
     fill="#602600"
     id="path1"
     style="stroke-width:0.462205" />
</svg>
