<?xml version="1.0" encoding="UTF-8" standalone="no"?>
<svg
   xml:space="preserve"
   viewBox="265 14 22.629961 24"
   version="1.1"
   id="svg19"
   width="22.629961"
   height="24"
   xmlns="http://www.w3.org/2000/svg"
   xmlns:svg="http://www.w3.org/2000/svg"><defs
   id="defs19" />
   
   
   
   
   
   
   
   
   
   
   
   
   
   
   
   
   
   
   <g
   id="g19"
   transform="matrix(0.32369274,0,0,0.32369274,178.31381,9.4086714)"><path
     d="m 313.835,57.485 c 0,0 8.8,-0.2 9.9,6.1 h -4.1 c 0,0 -0.2,2.6 -0.8,3.7 l -5.7,-3 v 3 c 0,0 -5.3,-0.9 -5.4,-5.7 -0.2,-4.8 6.1,-4.1 6.1,-4.1 z"
     style="clip-rule:evenodd;fill:#eac716;fill-rule:evenodd"
     id="path1"
     transform="translate(0,21)" /><path
     stroke-miterlimit="22.926"
     d="m 313.835,57.485 c 0,0 8.8,-0.2 9.9,6.1 h -4.1 c 0,0 -0.2,2.6 -0.8,3.7 l -5.7,-3 v 3 c 0,0 -5.3,-0.9 -5.4,-5.7 -0.2,-4.8 6.1,-4.1 6.1,-4.1 z"
     style="fill:none;stroke:#000003;stroke-width:0.0649;stroke-miterlimit:22.9256"
     id="path2"
     transform="translate(0,21)" /><path
     d="m 287.135,57.485 c 0,0 -10.2,-0.2 -11.5,6.1 h 4.8 c 0,0 0.2,2.6 0.9,3.7 l 6.7,-3 v 3 c 0,0 6.1,-0.9 6.3,-5.7 0.2,-4.8 -7.2,-4.1 -7.2,-4.1 z"
     style="clip-rule:evenodd;fill:#eac716;fill-rule:evenodd"
     id="path3"
     transform="translate(0,21)" /><path
     stroke-miterlimit="22.926"
     d="m 287.135,57.485 c 0,0 -10.2,-0.2 -11.5,6.1 h 4.8 c 0,0 0.2,2.6 0.9,3.7 l 6.7,-3 v 3 c 0,0 6.1,-0.9 6.3,-5.7 0.2,-4.8 -7.2,-4.1 -7.2,-4.1 z"
     style="fill:none;stroke:#000003;stroke-width:0.0649;stroke-miterlimit:22.9256"
     id="path4"
     transform="translate(0,21)" /><path
     d="m 300.235,-6.815 c -1.9,0 -17.4,0.7 -22,16.9 -2.1,7.4 -2.4,9.1 -2.4,9.9 v 1.3 c -7.2,5.4 -9.9,12.9 -6.7,22.9 0,0 3.2,-9.5 5.7,-9.5 0,0 -3,28.1 27.1,27.6 29.2,0 27.7,-27.6 27.7,-27.6 2.9,0 6.5,9.9 6.5,9.9 5.6,-15 -5.3,-20.6 -7.6,-24.5 0,0 0,-0.1 -0.1,-0.1 0.1,-0.4 -0.4,-2.6 -2.9,-9.9 -5.9,-17.3 -25.1,-16.9 -25.1,-16.9 z"
     style="clip-rule:evenodd;fill:#000002;fill-rule:evenodd"
     id="path5"
     transform="translate(0,21)" /><path
     d="m 324.535,31.985 c 0,0 8.5,-1 11.6,9.5 0,0 4.7,-8.7 -9.3,-20.5 0,0 -1.3,-28.4 -29.1,-27 v 55.7 c 0,0 24.1,5.6 26.8,-17.7 z"
     style="clip-rule:evenodd;fill:#1d333f;fill-rule:evenodd"
     id="path6"
     transform="translate(0,21)" /><path
     d="m 279.035,31.985 c 0,0 -7.2,-1 -9.8,9.5 0,0 -4.4,-10.5 7.8,-19.3 0,0 1.1,-29.6 24.5,-28.1 v 55.7 c 0.1,-0.1 -20.3,5.5 -22.5,-17.8 z"
     style="clip-rule:evenodd;fill:#1d333f;fill-rule:evenodd"
     id="path7"
     transform="translate(0,21)" /><path
     d="m 288.035,24.385 c 0,0 22.6,-0.7 26.8,0 0,0 6.7,4.2 6.7,17.1 0,6.2 -4.2,17.6 -21.1,17.6 0,0 -18.1,-0.9 -18.1,-17.6 -0.1,0 -1.7,-10.1 5.7,-17.1"
     style="clip-rule:evenodd;fill:#e0e6e9;fill-rule:evenodd"
     id="path8"
     transform="translate(0,21)" /><path
     d="m 288.035,24.385 c 0,0 20.8,-1 25.1,-0.3 0,0 8.2,2.9 8.2,14.1 0,3.6 -3.6,14.3 -19.7,14.3 0,0 -19.5,0.2 -19.5,-14.3 0,0 -0.4,-8.6 5.9,-13.8 z"
     style="clip-rule:evenodd;fill:#ffffff;fill-rule:evenodd"
     id="path9"
     transform="translate(0,21)" /><path
     d="m 294.735,23.585 c 0,0 7.1,-3.1 14.2,0 0,0 -5.6,7.4 -7.1,7.4 -0.9,0 -4.9,-3 -7.1,-7.4"
     style="clip-rule:evenodd;fill:#9ba4ae;fill-rule:evenodd"
     id="path10"
     transform="translate(0,21)" /><path
     d="m 293.235,23.585 c 0,0 7.1,-3.1 14.2,0 0,0 -5.6,7.4 -7.1,7.4 -0.9,0 -4.9,-3 -7.1,-7.4"
     style="clip-rule:evenodd;fill:#000003;fill-rule:evenodd"
     id="path11"
     transform="translate(0,21)" /><path
     d="m 301.435,11.085 c 0,0 -9.7,-4.5 -14.5,-4.9 -4.7,-0.3 -10.5,11.3 -3,16.7 6.3,4.5 12,1.3 17.4,-0.6 0,0 6.5,3.3 12.9,2.4 8.9,-1.2 11.7,-19.1 1.4,-18.3 0.1,0 -5.5,-1.8 -14.2,4.7 z"
     style="clip-rule:evenodd;fill:#000002;fill-rule:evenodd"
     id="path12"
     transform="translate(0,21)" /><path
     d="m 299.935,13.985 c 0,0 -12.1,-4.8 -14,-5.2 0,0 -4.3,8.1 3.6,11.5 0,0 7.4,2.6 10.4,-6.3 z m 17.3,-5.3 c 0,0 -12.3,4.5 -13.9,5.5 0,0 2.2,8.9 10.3,6.2 0,-0.1 7.3,-3.1 3.6,-11.7 z"
     style="clip-rule:evenodd;fill:#ffffff;fill-rule:evenodd"
     id="path13"
     transform="translate(0,21)" /><path
     d="m 286.935,5.985 c 0,0 9,2.4 14.1,5 0,0 11.2,-4.8 14.7,-4.8 0,0 -0.1,-11.3 -15.4,-11.3 -0.1,0 -13.4,1 -13.4,11.1 z"
     style="clip-rule:evenodd;fill:#4d5b5c;fill-rule:evenodd"
     id="path14"
     transform="translate(0,21)" /><path
     d="m 293.235,22.185 c 0,0 7.1,-3.1 14.2,0 0,0 -5.6,7.4 -7.1,7.4 -0.9,0 -4.9,-3 -7.1,-7.4 z"
     style="clip-rule:evenodd;fill:#eac716;fill-rule:evenodd"
     id="path15"
     transform="translate(0,21)" /><path
     stroke-miterlimit="22.926"
     d="m 293.235,22.185 c 0,0 7.1,-3.1 14.2,0 0,0 -5.6,7.4 -7.1,7.4 -0.9,0 -4.9,-3 -7.1,-7.4 z"
     style="fill:none;stroke:#000003;stroke-width:0.0649;stroke-miterlimit:22.9256"
     id="path16"
     transform="translate(0,21)" /><path
     d="m 297.135,14.085 c 0,1.7 -1.4,3.1 -3.1,3.1 -1.7,0 -3.1,-1.4 -3.1,-3.1 0,-1.7 1.4,-3.1 3.1,-3.1 1.7,0 3.1,1.4 3.1,3.1 m 15.6,0 c 0,1.7 -1.4,3.1 -3.1,3.1 -1.7,0 -3.1,-1.4 -3.1,-3.1 0,-1.7 1.4,-3.1 3.1,-3.1 1.7,0 3.1,1.4 3.1,3.1"
     style="clip-rule:evenodd;fill:#000002;fill-rule:evenodd"
     id="path17"
     transform="translate(0,21)" /><path
     d="m 297.135,13.185 c 0,0.6 -0.5,1.1 -1.1,1.1 -0.6,0 -1.1,-0.5 -1.1,-1.1 0,-0.6 0.5,-1.1 1.1,-1.1 0.6,0 1.1,0.5 1.1,1.1 m 14.5,-1.1 c 0,0.6 -0.5,1.1 -1.1,1.1 -0.6,0 -1.1,-0.5 -1.1,-1.1 0,-0.6 0.5,-1.1 1.1,-1.1 0.7,0 1.1,0.5 1.1,1.1 m -10.9,10.8 c 0,0 -3.3,-0.6 -5,0.9 l 3.5,3.8 z"
     style="clip-rule:evenodd;fill:#ffffff;fill-rule:evenodd"
     id="path18"
     transform="translate(0,21)" /><path
     d="m 277.035,22.185 c 0,0 2.4,-1.5 3.3,0 0.9,1.5 -10.9,9.5 -11.1,19.3 0,0 -0.2,1.1 -0.5,-1.7 -0.2,-2.9 -1.9,-10.2 8.3,-17.6 z m 49.8,-1.2 c 0,0 -1.7,-0.3 -2.8,1.1 -1,1.5 11.9,9.5 12.1,19.3 0,0 0.2,1.1 0.5,-1.7 0.3,-2.8 1.3,-11.3 -9.8,-18.7 z"
     style="clip-rule:evenodd;fill:#4d5b5c;fill-rule:evenodd"
     id="path19"
     transform="translate(0,21)" /></g>
</svg>
